<?xml version="1.0" encoding="UTF-8"?>
<svg id="Layer_1" data-name="Layer 1" xmlns="http://www.w3.org/2000/svg" version="1.1" viewBox="0 0 1080 351.2">
  <defs>
    <style>
      .cls-1 {
        fill: #3f7ff8;
      }

      .cls-1, .cls-2 {
        stroke-width: 0px;
      }

      .cls-2 {
        fill: #313131;
      }
    </style>
  </defs>
  <path class="cls-1" d="M36.9,35c16.4-16.3,36.2-24.4,59.5-24.4h86.2v35.7h-87.2c-14.5,0-26.3,5.4-35.4,16.2-7.7,9.6-11.6,20.2-11.6,31.9H12.2c0-23.4,8.2-43.2,24.6-59.5ZM176.5,126.6c-4,10.4-9.9,19.5-17.7,27.4-16.6,16.2-36.4,24.3-59.6,24.3H13.1v-35.9h87.2c14.5,0,26.3-5.4,35.4-16.2,7.7-9.6,11.6-20.2,11.6-31.9h35.2c0,11.2-2,22-6,32.4Z"/>
  <path class="cls-1" d="M259.7,35c16.4-16.3,36.2-24.4,59.5-24.4h86.2v35.7h-87.2c-14.5,0-26.3,5.4-35.4,16.2-7.7,9.6-11.6,20.2-11.6,31.9h-36.1c0-23.4,8.2-43.2,24.6-59.5ZM399.4,126.6c-4,10.4-9.9,19.5-17.7,27.4-16.6,16.2-36.4,24.3-59.6,24.3h-86.2v-35.9h87.2c14.5,0,26.3-5.4,35.4-16.2,7.7-9.6,11.6-20.2,11.6-31.9h35.2c0,11.2-2,22-6,32.4Z"/>
  <g>
    <path class="cls-2" d="M25.2,317.5c3.2,6.4,8.3,13.6,16.3,13.6s11.6-4.2,11.6-10.9c0-15.8-39-12.3-39-41.1s12.6-30.4,31-30.4,23,5.5,30.3,17.6l-10.1,7.9c-4-6.9-8.2-13.3-17.2-13.3s-10.5,4.7-10.5,11.3c0,15.6,39.8,11.2,39.8,41.1s-14.1,30-32.4,30-25.2-5-32.5-18l12.6-7.7Z"/>
    <path class="cls-2" d="M111.6,256.5c0,5.5-4.7,10.2-10.2,10.2s-10.2-4.7-10.2-10.2,4.7-10.2,10.2-10.2,10.2,4.7,10.2,10.2ZM91.4,280.7h19.9v60h-19.9v-60Z"/>
    <path class="cls-2" d="M129.2,280.7h31.4c10.5,0,20.1,6.9,20.1,18.3s-3.6,13.3-11.3,15.2l17.3,26.6h-22.4l-13.8-29.5h.3c7.3,0,10.1-4.4,10.1-11.5s-4.3-10.8-9.4-10.8h-2.2v51.7h-19.9v-60Z"/>
    <path class="cls-2" d="M216.7,256.5c0,5.5-4.7,10.2-10.2,10.2s-10.2-4.7-10.2-10.2,4.7-10.2,10.2-10.2,10.2,4.7,10.2,10.2ZM196.5,280.7h19.9v60h-19.9v-60Z"/>
    <path class="cls-2" d="M279.6,251.1h25.2v89.6h-25.2v-89.6Z"/>
    <path class="cls-2" d="M372,331.3c0,5.3-1.1,10-7.3,10s-6.2-1.5-8.3-5l-21-34h-.3v38.5h-10v-49.4c0-4.8,1-11.2,10.4-11.2s8.9,2.9,11.9,7.7l14.4,22.8h.3v-30.6h10v51.2Z"/>
    <path class="cls-2" d="M390.6,340.7v-80.9c0-10.2,6.2-15.9,17-15.9h19.9v8.9h-12c-5,0-5,4-5,7.7v20.2h14.8v9.7h-14.8v50.4h-19.9Z"/>
    <path class="cls-2" d="M461.3,280.1c17,0,30.6,13.4,30.6,30.6s-13.6,30.6-30.6,30.6-30.6-13.4-30.6-30.6,13.6-30.6,30.6-30.6ZM461.3,334.1c8.3,0,9.3-11.6,9.3-23.4s-1-23.4-9.3-23.4-9.3,11.6-9.3,23.4,1,23.4,9.3,23.4Z"/>
    <path class="cls-2" d="M508.7,317.5c3.2,6.4,8.3,13.6,16.3,13.6s11.6-4.2,11.6-10.9c0-15.8-39-12.3-39-41.1s12.6-30.4,31-30.4,23,5.5,30.3,17.6l-10.1,7.9c-4-6.9-8.2-13.3-17.2-13.3s-10.5,4.7-10.5,11.3c0,15.6,39.8,11.2,39.8,41.1s-14.1,30-32.4,30-25.2-5-32.5-18l12.6-7.7Z"/>
    <path class="cls-2" d="M600.3,280.1c17,0,30.6,13.4,30.6,30.6s-13.6,30.6-30.6,30.6-30.6-13.4-30.6-30.6,13.6-30.6,30.6-30.6ZM600.3,334.1c8.3,0,9.3-11.6,9.3-23.4s-1-23.4-9.3-23.4-9.3,11.6-9.3,23.4,1,23.4,9.3,23.4Z"/>
    <path class="cls-2" d="M664.1,243.9v79.7c0,6.2.8,8.3,5.3,8.3h8.4v8.9h-19.8c-9.1,0-13.8-3.6-13.8-12v-84.8h19.9Z"/>
    <path class="cls-2" d="M707,280.7v35.7c0,7.3,1.4,13.8,10.1,13.8s9.4-4.8,9.4-10.7v-38.9h10v40.1c0,13.7-10.2,20.5-24.5,20.5s-24.9-8.7-24.9-24.8v-35.8h19.9Z"/>
    <path class="cls-2" d="M746.3,280.7h51.2v10.8h-15.6v49.3h-19.9v-49.3h-15.6v-10.8Z"/>
    <path class="cls-2" d="M828.3,256.5c0,5.5-4.7,10.2-10.2,10.2s-10.2-4.7-10.2-10.2,4.7-10.2,10.2-10.2,10.2,4.7,10.2,10.2ZM808.1,280.7h19.9v60h-19.9v-60Z"/>
    <path class="cls-2" d="M871.9,280.1c17,0,30.6,13.4,30.6,30.6s-13.6,30.6-30.6,30.6-30.6-13.4-30.6-30.6,13.6-30.6,30.6-30.6ZM871.9,334.1c8.3,0,9.3-11.6,9.3-23.4s-1-23.4-9.3-23.4-9.3,11.6-9.3,23.4,1,23.4,9.3,23.4Z"/>
    <path class="cls-2" d="M962,331.3c0,5.3-1.1,10-7.3,10s-6.2-1.5-8.3-5l-21-34h-.3v38.5h-10v-49.4c0-4.8,1-11.2,10.4-11.2s8.9,2.9,11.9,7.7l14.4,22.8h.3v-30.6h10v51.2Z"/>
    <path class="cls-2" d="M1000.7,289.5c-3,0-6.9.3-6.9,5,0,11.1,26.8.8,26.8,25.2s-9.4,21-21.7,21h-21.6v-8.9h16.9c5.5,0,9.1-.4,9.1-7.2,0-11.1-28.8-2.1-28.8-24.8s8.9-19.2,20.8-19.2h19.1v8.9h-13.7Z"/>
  </g>
  <rect class="cls-1" x="189" y="12" width="40.7" height="165.9"/>
</svg>